<mxfile host="Electron" agent="Mozilla/5.0 (Windows NT 10.0; Win64; x64) AppleWebKit/537.36 (KHTML, like Gecko) draw.io/26.0.4 Chrome/128.0.6613.186 Electron/32.2.5 Safari/537.36" version="26.0.4" pages="17">
  <diagram name="train-actor" id="Ec2ZKAfXvHIydBrQKlre">
    <mxGraphModel dx="6857" dy="3720" grid="1" gridSize="10" guides="1" tooltips="1" connect="1" arrows="1" fold="1" page="1" pageScale="1" pageWidth="850" pageHeight="1100" math="0" shadow="0">
      <root>
        <mxCell id="0" />
        <mxCell id="1" parent="0" />
        <mxCell id="3pVlBvVb89OUdCH4Tyja-1" value="Inventory Manager" style="ellipse;whiteSpace=wrap;html=1;aspect=fixed;strokeColor=#000000;fontSize=30;rounded=1;strokeWidth=3;fillColor=#d5e8d4;arcSize=50;verticalAlign=middle;spacingBottom=19;" vertex="1" parent="1">
          <mxGeometry x="-3940" y="-1735" width="170" height="170" as="geometry" />
        </mxCell>
        <mxCell id="3pVlBvVb89OUdCH4Tyja-2" value="" style="curved=1;endArrow=none;html=1;rounded=0;fontSize=15;edgeStyle=orthogonalEdgeStyle;exitX=0.039;exitY=0.679;exitDx=0;exitDy=0;entryX=0.971;entryY=0.66;entryDx=0;entryDy=0;endFill=0;strokeWidth=3;entryPerimeter=0;exitPerimeter=0;" edge="1" parent="1" source="3pVlBvVb89OUdCH4Tyja-1" target="3pVlBvVb89OUdCH4Tyja-1">
          <mxGeometry width="50" height="50" relative="1" as="geometry">
            <mxPoint x="-3640" y="-1575" as="sourcePoint" />
            <mxPoint x="-3590" y="-1625" as="targetPoint" />
            <Array as="points">
              <mxPoint x="-3855" y="-1565" />
            </Array>
          </mxGeometry>
        </mxCell>
      </root>
    </mxGraphModel>
  </diagram>
  <diagram id="dd-WDrss_a9XBaPhCK7x" name="train-goal">
    <mxGraphModel dx="7118" dy="3872" grid="1" gridSize="10" guides="1" tooltips="1" connect="1" arrows="1" fold="1" page="1" pageScale="1" pageWidth="850" pageHeight="1100" math="0" shadow="0">
      <root>
        <mxCell id="0" />
        <mxCell id="1" parent="0" />
        <object label="Medical Supplies Replenished" concept="goal" id="Vh5qEouwBAz3VqgGCD2j-1">
          <mxCell style="rounded=1;whiteSpace=wrap;html=1;arcSize=46;fillColor=#d5e8d4;strokeColor=#688F51;fontSize=20;strokeWidth=3;" vertex="1" parent="1">
            <mxGeometry x="-3910" y="-1707" width="174" height="57" as="geometry" />
          </mxCell>
        </object>
      </root>
    </mxGraphModel>
  </diagram>
  <diagram id="aIbsQoJTyTLjolBMKHEs" name="train-task">
    <mxGraphModel dx="6857" dy="3720" grid="1" gridSize="10" guides="1" tooltips="1" connect="1" arrows="1" fold="1" page="1" pageScale="1" pageWidth="850" pageHeight="1100" math="0" shadow="0">
      <root>
        <mxCell id="0" />
        <mxCell id="1" parent="0" />
        <object label="Order Supplies Online" concept="task" id="nEzXTMeb7iL7YJdwaMJj-1">
          <mxCell style="shape=hexagon;perimeter=hexagonPerimeter2;whiteSpace=wrap;html=1;fixedSize=1;strokeWidth=3;fontSize=20;size=20;fillColor=#d5e8d4;strokeColor=#688F51;verticalAlign=middle;spacing=10;" vertex="1" parent="1">
            <mxGeometry x="-3920" y="-1750" width="150" height="70" as="geometry" />
          </mxCell>
        </object>
      </root>
    </mxGraphModel>
  </diagram>
  <diagram id="-WJ-0lVJmLWiM-_tlHQU" name="train-eff-sat">
    <mxGraphModel dx="6007" dy="3720" grid="1" gridSize="10" guides="1" tooltips="1" connect="1" arrows="1" fold="1" page="1" pageScale="1" pageWidth="850" pageHeight="1100" math="0" shadow="0">
      <root>
        <mxCell id="0" />
        <mxCell id="1" parent="0" />
        <object label="Order Successfully Received" concept="effect" status="attainment" id="Sy4DJA6vQhwNwcjex5_H-1">
          <mxCell style="ellipse;whiteSpace=wrap;html=1;strokeWidth=3;fontSize=18;fillColor=#e1d5e7;strokeColor=#3333FF;verticalAlign=middle;" vertex="1" parent="1">
            <mxGeometry x="-3100" y="-1740" width="189" height="60" as="geometry" />
          </mxCell>
        </object>
      </root>
    </mxGraphModel>
  </diagram>
  <diagram id="OgserJ6XxkKbiJlCiBO6" name="train-eff-nonsat">
    <mxGraphModel dx="4834" dy="3036" grid="1" gridSize="10" guides="1" tooltips="1" connect="1" arrows="1" fold="1" page="1" pageScale="1" pageWidth="850" pageHeight="1100" math="0" shadow="0">
      <root>
        <mxCell id="0" />
        <mxCell id="1" parent="0" />
        <mxCell id="0YlVVEQZGb2mTp_zM3Us-1" value="" style="group" vertex="1" connectable="0" parent="1">
          <mxGeometry x="-3030" y="-1700" width="167" height="67" as="geometry" />
        </mxCell>
        <object label="Order Did Not Go Through" concept="effect" status="failure" id="0YlVVEQZGb2mTp_zM3Us-2">
          <mxCell style="ellipse;whiteSpace=wrap;html=1;strokeWidth=3;fontSize=18;fillColor=#e1d5e7;strokeColor=#d95f02;verticalAlign=middle;" vertex="1" parent="0YlVVEQZGb2mTp_zM3Us-1">
            <mxGeometry y="7" width="167" height="60" as="geometry" />
          </mxCell>
        </object>
        <object label="&lt;font style=&quot;font-size: 13px;&quot;&gt;N&lt;/font&gt;" concept="goal" id="0YlVVEQZGb2mTp_zM3Us-3">
          <mxCell style="rounded=1;whiteSpace=wrap;html=1;arcSize=24;fillColor=#f8cecc;strokeColor=#b85450;fontSize=13;strokeWidth=3;fontStyle=1" vertex="1" parent="0YlVVEQZGb2mTp_zM3Us-1">
            <mxGeometry x="133" width="18" height="19" as="geometry" />
          </mxCell>
        </object>
      </root>
    </mxGraphModel>
  </diagram>
  <diagram id="7CUkwHFLCe5bTXDTNmgh" name="train-eff-pre">
    <mxGraphModel dx="7118" dy="3872" grid="1" gridSize="10" guides="1" tooltips="1" connect="1" arrows="1" fold="1" page="1" pageScale="1" pageWidth="850" pageHeight="1100" math="0" shadow="0">
      <root>
        <mxCell id="0" />
        <mxCell id="1" parent="0" />
        <mxCell id="cfAukfMTxUsbgj3sRWmh-1" value="" style="group" vertex="1" connectable="0" parent="1">
          <mxGeometry x="-3910" y="-1790" width="163" height="69" as="geometry" />
        </mxCell>
        <object label="Stock was below reorder point" concept="effect" status="attainment" id="cfAukfMTxUsbgj3sRWmh-2">
          <mxCell style="ellipse;whiteSpace=wrap;html=1;strokeWidth=3;fontSize=18;fillColor=#e1d5e7;strokeColor=#000302;verticalAlign=middle;dashed=1;dashPattern=1 1;" vertex="1" parent="cfAukfMTxUsbgj3sRWmh-1">
            <mxGeometry y="9" width="163" height="60" as="geometry" />
          </mxCell>
        </object>
        <mxCell id="cfAukfMTxUsbgj3sRWmh-3" value="&lt;b&gt;PRE&lt;/b&gt;" style="rounded=1;whiteSpace=wrap;html=1;fontSize=13;strokeColor=#6c8ebf;verticalAlign=middle;fillColor=#dae8fc;strokeWidth=2;" vertex="1" parent="cfAukfMTxUsbgj3sRWmh-1">
          <mxGeometry x="17" width="38" height="22" as="geometry" />
        </mxCell>
      </root>
    </mxGraphModel>
  </diagram>
  <diagram id="WtNCL_KRA-hIqWdWnr2X" name="train-eff-ind">
    <mxGraphModel dx="5449" dy="3394" grid="1" gridSize="10" guides="1" tooltips="1" connect="1" arrows="1" fold="1" page="1" pageScale="1" pageWidth="850" pageHeight="1100" math="0" shadow="0">
      <root>
        <mxCell id="0" />
        <mxCell id="1" parent="0" />
        <object label="Stock Is Below Reorder Point&amp;nbsp;" concept="effect" status="attainment" id="hdE5rvB-XYaKP4kQtsyR-1">
          <mxCell style="ellipse;whiteSpace=wrap;html=1;strokeWidth=3;fontSize=18;fillColor=#e1d5e7;strokeColor=#000302;verticalAlign=middle;" vertex="1" parent="1">
            <mxGeometry x="-3070" y="-1740" width="163" height="60" as="geometry" />
          </mxCell>
        </object>
      </root>
    </mxGraphModel>
  </diagram>
  <diagram id="KEJj_xSflN83VY-h6zO9" name="train-qual">
    <mxGraphModel dx="4834" dy="3036" grid="1" gridSize="10" guides="1" tooltips="1" connect="1" arrows="1" fold="1" page="1" pageScale="1" pageWidth="850" pageHeight="1100" math="0" shadow="0">
      <root>
        <mxCell id="0" />
        <mxCell id="1" parent="0" />
        <object label="Expedite Delivery" concept="quality" id="GthH5rZBhtUM1FMhL2wr-1">
          <mxCell style="ellipse;shape=cloud;whiteSpace=wrap;html=1;strokeWidth=3;fontSize=20;fillColor=#d5e8d4;strokeColor=#688F51;verticalAlign=middle;spacing=24;" vertex="1" parent="1">
            <mxGeometry x="-3040" y="-1720" width="188" height="109" as="geometry" />
          </mxCell>
        </object>
      </root>
    </mxGraphModel>
  </diagram>
  <diagram id="PbiAn6cNwDSiUq8uX_lD" name="train-qual-pre">
    <mxGraphModel dx="7118" dy="3872" grid="1" gridSize="10" guides="1" tooltips="1" connect="1" arrows="1" fold="1" page="1" pageScale="1" pageWidth="850" pageHeight="1100" math="0" shadow="0">
      <root>
        <mxCell id="0" />
        <mxCell id="1" parent="0" />
        <mxCell id="NGlXISKa0Mc8jDN_PLTJ-1" value="" style="group" vertex="1" connectable="0" parent="1">
          <mxGeometry x="-3950" y="-1950" width="188" height="109" as="geometry" />
        </mxCell>
        <object label="Expedite Delivery" concept="quality" id="NGlXISKa0Mc8jDN_PLTJ-2">
          <mxCell style="ellipse;shape=cloud;whiteSpace=wrap;html=1;strokeWidth=3;fontSize=20;fillColor=#d5e8d4;strokeColor=#688F51;verticalAlign=middle;spacing=24;dashed=1;dashPattern=1 1;" vertex="1" parent="NGlXISKa0Mc8jDN_PLTJ-1">
            <mxGeometry width="188" height="109" as="geometry" />
          </mxCell>
        </object>
        <mxCell id="NGlXISKa0Mc8jDN_PLTJ-3" value="PRE" style="rounded=1;whiteSpace=wrap;html=1;fontSize=13;strokeColor=#6c8ebf;verticalAlign=middle;fillColor=#dae8fc;strokeWidth=2;fontStyle=1" vertex="1" parent="NGlXISKa0Mc8jDN_PLTJ-1">
          <mxGeometry x="13" y="13" width="38" height="22" as="geometry" />
        </mxCell>
      </root>
    </mxGraphModel>
  </diagram>
  <diagram id="a8uaVG-AinOhcNo04QQs" name="train-wants">
    <mxGraphModel dx="5684" dy="3036" grid="1" gridSize="10" guides="1" tooltips="1" connect="1" arrows="1" fold="1" page="1" pageScale="1" pageWidth="850" pageHeight="1100" math="0" shadow="0">
      <root>
        <mxCell id="0" />
        <mxCell id="1" parent="0" />
        <mxCell id="SStm99NMdHmty3VdGUNj-1" value="" style="ellipse;whiteSpace=wrap;html=1;aspect=fixed;strokeColor=#000099;fontSize=15;fillColor=#E6E6E6;dashed=1;" vertex="1" parent="1">
          <mxGeometry x="-3906" y="-1870" width="193" height="193" as="geometry" />
        </mxCell>
        <mxCell id="SStm99NMdHmty3VdGUNj-2" value="Inventory Manager" style="ellipse;whiteSpace=wrap;html=1;aspect=fixed;strokeColor=#000000;fontSize=22;rounded=1;strokeWidth=3;fillColor=#d5e8d4;arcSize=50;verticalAlign=middle;spacingBottom=19;" vertex="1" parent="1">
          <mxGeometry x="-3936" y="-1940" width="130" height="130" as="geometry" />
        </mxCell>
        <mxCell id="SStm99NMdHmty3VdGUNj-3" value="" style="curved=1;endArrow=none;html=1;rounded=0;fontSize=15;edgeStyle=orthogonalEdgeStyle;exitX=0.039;exitY=0.679;exitDx=0;exitDy=0;entryX=0.971;entryY=0.66;entryDx=0;entryDy=0;endFill=0;strokeWidth=3;entryPerimeter=0;exitPerimeter=0;" edge="1" parent="1" source="SStm99NMdHmty3VdGUNj-2" target="SStm99NMdHmty3VdGUNj-2">
          <mxGeometry width="50" height="50" relative="1" as="geometry">
            <mxPoint x="-3636" y="-1780" as="sourcePoint" />
            <mxPoint x="-3586" y="-1830" as="targetPoint" />
            <Array as="points">
              <mxPoint x="-3869" y="-1812" />
            </Array>
          </mxGeometry>
        </mxCell>
        <object label="Medical Supplies Replenished" concept="goal" id="SStm99NMdHmty3VdGUNj-4">
          <mxCell style="rounded=1;whiteSpace=wrap;html=1;arcSize=46;fillColor=#d5e8d4;strokeColor=#688F51;fontSize=20;strokeWidth=3;" vertex="1" parent="1">
            <mxGeometry x="-3892" y="-1797.5" width="174" height="57" as="geometry" />
          </mxCell>
        </object>
      </root>
    </mxGraphModel>
  </diagram>
  <diagram id="xzP2wwor0itwGmuIHw4C" name="train-and">
    <mxGraphModel dx="6268" dy="3872" grid="1" gridSize="10" guides="1" tooltips="1" connect="1" arrows="1" fold="1" page="1" pageScale="1" pageWidth="850" pageHeight="1100" math="0" shadow="0">
      <root>
        <mxCell id="0" />
        <mxCell id="1" parent="0" />
        <object label="Medical Supplies Replenished" concept="goal" id="fJmbxNDhYUK81G53ylVR-1">
          <mxCell style="rounded=1;whiteSpace=wrap;html=1;arcSize=46;fillColor=#d5e8d4;strokeColor=#688F51;fontSize=20;strokeWidth=3;" vertex="1" parent="1">
            <mxGeometry x="-3062" y="-1850" width="150" height="70" as="geometry" />
          </mxCell>
        </object>
        <object label="Place Order" concept="task" id="fJmbxNDhYUK81G53ylVR-2">
          <mxCell style="shape=hexagon;perimeter=hexagonPerimeter2;whiteSpace=wrap;html=1;fixedSize=1;strokeWidth=3;fontSize=20;size=20;fillColor=#d5e8d4;strokeColor=#688F51;verticalAlign=middle;spacing=10;" vertex="1" parent="1">
            <mxGeometry x="-3160" y="-1724" width="150" height="70" as="geometry" />
          </mxCell>
        </object>
        <object label="" concept="andDecomp" id="fJmbxNDhYUK81G53ylVR-3">
          <mxCell style="rounded=0;orthogonalLoop=1;jettySize=auto;html=1;fontSize=20;endArrow=ERone;endFill=0;endSize=17;strokeWidth=2;" edge="1" parent="1" source="fJmbxNDhYUK81G53ylVR-2" target="fJmbxNDhYUK81G53ylVR-1">
            <mxGeometry relative="1" as="geometry">
              <mxPoint x="-2969" y="-1646" as="sourcePoint" />
              <mxPoint x="-2969" y="-1696" as="targetPoint" />
            </mxGeometry>
          </mxCell>
        </object>
        <object label="" concept="andDecomp" id="fJmbxNDhYUK81G53ylVR-4">
          <mxCell style="rounded=0;orthogonalLoop=1;jettySize=auto;html=1;fontSize=20;endArrow=ERone;endFill=0;endSize=17;strokeWidth=2;" edge="1" parent="1" source="fJmbxNDhYUK81G53ylVR-5" target="fJmbxNDhYUK81G53ylVR-1">
            <mxGeometry relative="1" as="geometry">
              <mxPoint x="-3080.3488372093025" y="-1665" as="sourcePoint" />
              <mxPoint x="-3037.6511627906975" y="-1767" as="targetPoint" />
            </mxGeometry>
          </mxCell>
        </object>
        <object label="Pay for Order" concept="task" id="fJmbxNDhYUK81G53ylVR-5">
          <mxCell style="shape=hexagon;perimeter=hexagonPerimeter2;whiteSpace=wrap;html=1;fixedSize=1;strokeWidth=3;fontSize=20;size=20;fillColor=#d5e8d4;strokeColor=#688F51;verticalAlign=middle;spacing=10;" vertex="1" parent="1">
            <mxGeometry x="-3001" y="-1695" width="150" height="70" as="geometry" />
          </mxCell>
        </object>
      </root>
    </mxGraphModel>
  </diagram>
  <diagram id="nIpb44fQ9__1BnvwobC4" name="train-or">
    <mxGraphModel dx="4834" dy="3036" grid="1" gridSize="10" guides="1" tooltips="1" connect="1" arrows="1" fold="1" page="1" pageScale="1" pageWidth="850" pageHeight="1100" math="0" shadow="0">
      <root>
        <mxCell id="0" />
        <mxCell id="1" parent="0" />
        <object label="&lt;font style=&quot;font-size: 20px&quot;&gt;Medical Supplies Replenished&lt;/font&gt;" concept="goal" id="GDCDd63JzXPlBxPeWDYm-1">
          <mxCell style="rounded=1;whiteSpace=wrap;html=1;arcSize=46;fillColor=#d5e8d4;strokeColor=#688F51;fontSize=20;strokeWidth=3;" vertex="1" parent="1">
            <mxGeometry x="-3151" y="-1860" width="150" height="70" as="geometry" />
          </mxCell>
        </object>
        <object label="Order Online" concept="task" id="GDCDd63JzXPlBxPeWDYm-2">
          <mxCell style="shape=hexagon;perimeter=hexagonPerimeter2;whiteSpace=wrap;html=1;fixedSize=1;strokeWidth=3;fontSize=20;size=20;fillColor=#d5e8d4;strokeColor=#688F51;verticalAlign=middle;spacing=10;" vertex="1" parent="1">
            <mxGeometry x="-3280" y="-1743" width="150" height="70" as="geometry" />
          </mxCell>
        </object>
        <object label="" concept="orDecomp" id="GDCDd63JzXPlBxPeWDYm-3">
          <mxCell style="rounded=0;orthogonalLoop=1;jettySize=auto;html=1;fontSize=20;endArrow=open;endFill=0;endSize=17;strokeWidth=2;" edge="1" parent="1" source="GDCDd63JzXPlBxPeWDYm-2" target="GDCDd63JzXPlBxPeWDYm-1">
            <mxGeometry x="0.0383" y="2" relative="1" as="geometry">
              <mxPoint x="-3149.809523809524" y="-1703" as="sourcePoint" />
              <mxPoint x="-3092.190476190476" y="-1780" as="targetPoint" />
              <mxPoint as="offset" />
            </mxGeometry>
          </mxCell>
        </object>
        <object label="" concept="orDecomp" id="GDCDd63JzXPlBxPeWDYm-4">
          <mxCell style="rounded=0;orthogonalLoop=1;jettySize=auto;html=1;fontSize=20;endArrow=open;endFill=0;endSize=17;strokeWidth=2;" edge="1" parent="1" source="GDCDd63JzXPlBxPeWDYm-5" target="GDCDd63JzXPlBxPeWDYm-1">
            <mxGeometry x="0.0383" y="2" relative="1" as="geometry">
              <mxPoint x="-3154" y="-1623" as="sourcePoint" />
              <mxPoint x="-3154" y="-1683" as="targetPoint" />
              <mxPoint as="offset" />
            </mxGeometry>
          </mxCell>
        </object>
        <object label="Buy in Person" concept="task" id="GDCDd63JzXPlBxPeWDYm-5">
          <mxCell style="shape=hexagon;perimeter=hexagonPerimeter2;whiteSpace=wrap;html=1;fixedSize=1;strokeWidth=3;fontSize=20;size=20;fillColor=#d5e8d4;strokeColor=#688F51;verticalAlign=middle;spacing=10;" vertex="1" parent="1">
            <mxGeometry x="-3127.5" y="-1709" width="150" height="70" as="geometry" />
          </mxCell>
        </object>
      </root>
    </mxGraphModel>
  </diagram>
  <diagram id="yVWhYT5zR7-Pb1gfiL4w" name="train-eff-link-nondet">
    <mxGraphModel dx="7118" dy="3872" grid="1" gridSize="10" guides="1" tooltips="1" connect="1" arrows="1" fold="1" page="1" pageScale="1" pageWidth="850" pageHeight="1100" math="0" shadow="0">
      <root>
        <mxCell id="0" />
        <mxCell id="1" parent="0" />
        <object label="Order Supplies Online" concept="task" id="fNFEpY7xW50m_F6sTBvW-1">
          <mxCell style="shape=hexagon;perimeter=hexagonPerimeter2;whiteSpace=wrap;html=1;fixedSize=1;strokeWidth=3;fontSize=20;size=20;fillColor=#d5e8d4;strokeColor=#688F51;verticalAlign=middle;spacing=10;" vertex="1" parent="1">
            <mxGeometry x="-3970" y="-1830" width="150" height="70" as="geometry" />
          </mxCell>
        </object>
        <object label="" concept="effectGroup" id="fNFEpY7xW50m_F6sTBvW-2">
          <mxCell style="ellipse;whiteSpace=wrap;html=1;aspect=fixed;strokeWidth=2;fontSize=15;fillColor=#e1d5e7;strokeColor=#9673a6;verticalAlign=middle;" vertex="1" parent="1">
            <mxGeometry x="-3850.5" y="-1698" width="20" height="20" as="geometry" />
          </mxCell>
        </object>
        <object label="eff" concept="effectLink" id="fNFEpY7xW50m_F6sTBvW-3">
          <mxCell style="rounded=0;orthogonalLoop=1;jettySize=auto;html=1;fontSize=20;endArrow=open;endFill=0;endSize=7;strokeColor=default;elbow=vertical;labelBackgroundColor=default;strokeWidth=2;" edge="1" parent="1" source="fNFEpY7xW50m_F6sTBvW-1" target="fNFEpY7xW50m_F6sTBvW-2">
            <mxGeometry relative="1" as="geometry">
              <mxPoint x="-3610" y="-1447" as="sourcePoint" />
              <mxPoint x="-3825" y="-1592" as="targetPoint" />
            </mxGeometry>
          </mxCell>
        </object>
        <object label="" concept="effectGroupLink" id="fNFEpY7xW50m_F6sTBvW-4">
          <mxCell style="endArrow=openThin;html=1;fontSize=15;rounded=0;endFill=0;strokeColor=default;elbow=vertical;labelBackgroundColor=#E6E6E6;strokeWidth=2;" edge="1" parent="1" source="fNFEpY7xW50m_F6sTBvW-2" target="fNFEpY7xW50m_F6sTBvW-8">
            <mxGeometry x="-0.2" width="50" height="50" relative="1" as="geometry">
              <mxPoint x="-3646.554728598892" y="-1324.4478127012771" as="sourcePoint" />
              <mxPoint x="-3693.087749377226" y="-1271.4075007146591" as="targetPoint" />
              <mxPoint as="offset" />
            </mxGeometry>
          </mxCell>
        </object>
        <object label="Order Successfully Received" concept="effect" status="attainment" id="fNFEpY7xW50m_F6sTBvW-5">
          <mxCell style="ellipse;whiteSpace=wrap;html=1;strokeWidth=3;fontSize=18;fillColor=#e1d5e7;strokeColor=#3333FF;verticalAlign=middle;" vertex="1" parent="1">
            <mxGeometry x="-3961" y="-1651" width="163" height="60" as="geometry" />
          </mxCell>
        </object>
        <object label="" concept="effectGroupLink" id="fNFEpY7xW50m_F6sTBvW-6">
          <mxCell style="endArrow=openThin;html=1;fontSize=15;rounded=0;endFill=0;strokeColor=default;elbow=vertical;labelBackgroundColor=#E6E6E6;strokeWidth=2;" edge="1" parent="1" source="fNFEpY7xW50m_F6sTBvW-2" target="fNFEpY7xW50m_F6sTBvW-5">
            <mxGeometry x="-0.2" width="50" height="50" relative="1" as="geometry">
              <mxPoint x="-3591.336447788555" y="-1362.005716960461" as="sourcePoint" />
              <mxPoint x="-3457.501520444273" y="-1285.3156876624525" as="targetPoint" />
              <mxPoint as="offset" />
            </mxGeometry>
          </mxCell>
        </object>
        <mxCell id="fNFEpY7xW50m_F6sTBvW-7" value="" style="group" vertex="1" connectable="0" parent="1">
          <mxGeometry x="-3768" y="-1691" width="167" height="67" as="geometry" />
        </mxCell>
        <object label="Order Did Not Go Through" concept="effect" status="failure" id="fNFEpY7xW50m_F6sTBvW-8">
          <mxCell style="ellipse;whiteSpace=wrap;html=1;strokeWidth=3;fontSize=18;fillColor=#e1d5e7;strokeColor=#d95f02;verticalAlign=middle;" vertex="1" parent="fNFEpY7xW50m_F6sTBvW-7">
            <mxGeometry y="7" width="167" height="60" as="geometry" />
          </mxCell>
        </object>
        <object label="&lt;font style=&quot;font-size: 13px;&quot;&gt;N&lt;/font&gt;" concept="goal" id="fNFEpY7xW50m_F6sTBvW-9">
          <mxCell style="rounded=1;whiteSpace=wrap;html=1;arcSize=24;fillColor=#f8cecc;strokeColor=#b85450;fontSize=13;strokeWidth=3;fontStyle=1" vertex="1" parent="fNFEpY7xW50m_F6sTBvW-7">
            <mxGeometry x="133" width="18" height="19" as="geometry" />
          </mxCell>
        </object>
      </root>
    </mxGraphModel>
  </diagram>
  <diagram id="AnfL69BX3xX4iMwILrTh" name="train-eff-link-det">
    <mxGraphModel dx="3798" dy="2432" grid="1" gridSize="10" guides="1" tooltips="1" connect="1" arrows="1" fold="1" page="1" pageScale="1" pageWidth="850" pageHeight="1100" math="0" shadow="0">
      <root>
        <mxCell id="0" />
        <mxCell id="1" parent="0" />
        <object label="Supplies Successfully Used" concept="effect" status="attainment" id="EhKwTjIGqqx3tGru7O5h-1">
          <mxCell style="ellipse;whiteSpace=wrap;html=1;strokeWidth=3;fontSize=18;fillColor=#e1d5e7;strokeColor=#3333FF;verticalAlign=middle;" parent="1" vertex="1">
            <mxGeometry x="-3160" y="-1845" width="163" height="60" as="geometry" />
          </mxCell>
        </object>
        <object label="eff" concept="effectLink" id="EhKwTjIGqqx3tGru7O5h-2">
          <mxCell style="rounded=0;orthogonalLoop=1;jettySize=auto;html=1;fontSize=20;endArrow=open;endFill=0;endSize=7;strokeColor=default;elbow=vertical;labelBackgroundColor=default;strokeWidth=2;" parent="1" source="EhKwTjIGqqx3tGru7O5h-1" target="EhKwTjIGqqx3tGru7O5h-3" edge="1">
            <mxGeometry x="-0.0082" relative="1" as="geometry">
              <mxPoint x="-3066" y="-1713" as="sourcePoint" />
              <mxPoint x="-3029.7494551671643" y="-1767.1819169686564" as="targetPoint" />
              <mxPoint as="offset" />
            </mxGeometry>
          </mxCell>
        </object>
        <object label="Stock is Below Reorder Point" concept="effect" status="attainment" id="EhKwTjIGqqx3tGru7O5h-3">
          <mxCell style="ellipse;whiteSpace=wrap;html=1;strokeWidth=3;fontSize=18;fillColor=#e1d5e7;strokeColor=#000302;verticalAlign=middle;" parent="1" vertex="1">
            <mxGeometry x="-3062.5" y="-1710" width="163" height="60" as="geometry" />
          </mxCell>
        </object>
        <mxCell id="8EuyRguatbuuUSc1wk4s-2" value="&lt;font face=&quot;Times New Roman&quot;&gt;I&lt;/font&gt;" style="rounded=1;whiteSpace=wrap;html=1;fillColor=#E1D5E7;strokeColor=#190033;strokeWidth=3;spacing=0;fontSize=18;spacingBottom=-1;" vertex="1" parent="1">
          <mxGeometry x="-2919.9999999999995" y="-1710" width="23.36" height="21.6" as="geometry" />
        </mxCell>
      </root>
    </mxGraphModel>
  </diagram>
  <diagram id="Cxlr-5SqX85Wq4695-T_" name="train-contr">
    <mxGraphModel dx="3984" dy="836" grid="1" gridSize="10" guides="1" tooltips="1" connect="1" arrows="1" fold="1" page="1" pageScale="1" pageWidth="850" pageHeight="1100" math="0" shadow="0">
      <root>
        <mxCell id="0" />
        <mxCell id="1" parent="0" />
        <object label="Purchase Supplies from Store" concept="task" id="k_78GTLRow_BTt9clfwx-1">
          <mxCell style="shape=hexagon;perimeter=hexagonPerimeter2;whiteSpace=wrap;html=1;fixedSize=1;strokeWidth=3;fontSize=20;size=20;fillColor=#d5e8d4;strokeColor=#688F51;verticalAlign=middle;spacing=10;" parent="1" vertex="1">
            <mxGeometry x="-2242" y="417" width="150" height="70" as="geometry" />
          </mxCell>
        </object>
        <object label="Product Quality" concept="quality" id="k_78GTLRow_BTt9clfwx-2">
          <mxCell style="ellipse;shape=cloud;whiteSpace=wrap;html=1;strokeWidth=3;fontSize=20;fillColor=#d5e8d4;strokeColor=#688F51;verticalAlign=middle;spacing=24;" parent="1" vertex="1">
            <mxGeometry x="-2250" y="592" width="155" height="91" as="geometry" />
          </mxCell>
        </object>
        <object label="" concept="contributionLink" id="k_78GTLRow_BTt9clfwx-3">
          <mxCell style="endArrow=classic;html=1;fontSize=15;strokeColor=default;elbow=vertical;curved=1;strokeWidth=2;labelBackgroundColor=#E6E6E6;" parent="1" source="k_78GTLRow_BTt9clfwx-1" target="k_78GTLRow_BTt9clfwx-2" edge="1">
            <mxGeometry x="-0.3139" y="15" relative="1" as="geometry">
              <mxPoint x="-2298.7962962962965" y="473.99999999999955" as="sourcePoint" />
              <mxPoint x="-2316.97783130958" y="626.9657392966233" as="targetPoint" />
              <Array as="points">
                <mxPoint x="-2140" y="547" />
              </Array>
              <mxPoint as="offset" />
            </mxGeometry>
          </mxCell>
        </object>
        <object label="&lt;font face=&quot;Times New Roman&quot; style=&quot;font-size: 22px;&quot;&gt;&lt;i style=&quot;font-size: 22px;&quot;&gt;f&lt;/i&gt;&lt;/font&gt;" concept="effectGroup" id="k_78GTLRow_BTt9clfwx-4">
          <mxCell style="ellipse;whiteSpace=wrap;html=1;aspect=fixed;strokeWidth=2;fontSize=22;fillColor=#dae8fc;strokeColor=#6c8ebf;verticalAlign=middle;spacingBottom=5;fontStyle=1" parent="1" vertex="1">
            <mxGeometry x="-2144" y="515" width="27" height="27" as="geometry" />
          </mxCell>
        </object>
      </root>
    </mxGraphModel>
  </diagram>
  <diagram id="X3Ajy25YReWj2Vnm9oMX" name="train-contr-pos">
    <mxGraphModel dx="3984" dy="836" grid="1" gridSize="10" guides="1" tooltips="1" connect="1" arrows="1" fold="1" page="1" pageScale="1" pageWidth="850" pageHeight="1100" math="0" shadow="0">
      <root>
        <mxCell id="0" />
        <mxCell id="1" parent="0" />
        <object label="Order Supplies Online" concept="task" id="puptjKP8VPnzvnjxqmA0-1">
          <mxCell style="shape=hexagon;perimeter=hexagonPerimeter2;whiteSpace=wrap;html=1;fixedSize=1;strokeWidth=3;fontSize=20;size=20;fillColor=#d5e8d4;strokeColor=#688F51;verticalAlign=middle;spacing=10;" vertex="1" parent="1">
            <mxGeometry x="-2223" y="460" width="150" height="70" as="geometry" />
          </mxCell>
        </object>
        <object label="Reduce Costs" concept="quality" id="puptjKP8VPnzvnjxqmA0-2">
          <mxCell style="ellipse;shape=cloud;whiteSpace=wrap;html=1;strokeWidth=3;fontSize=20;fillColor=#d5e8d4;strokeColor=#688F51;verticalAlign=middle;spacing=24;" vertex="1" parent="1">
            <mxGeometry x="-2390" y="606" width="155" height="91" as="geometry" />
          </mxCell>
        </object>
        <object label="&lt;font color=&quot;#0000cc&quot; size=&quot;1&quot;&gt;&lt;b style=&quot;font-size: 18px&quot;&gt;+0.3&lt;/b&gt;&lt;/font&gt;" concept="contributionLink" id="puptjKP8VPnzvnjxqmA0-3">
          <mxCell style="endArrow=classic;html=1;fontSize=15;strokeColor=default;elbow=vertical;curved=1;strokeWidth=2;labelBackgroundColor=#E6E6E6;" edge="1" parent="1" source="puptjKP8VPnzvnjxqmA0-1" target="puptjKP8VPnzvnjxqmA0-2">
            <mxGeometry x="0.1072" y="14" relative="1" as="geometry">
              <mxPoint x="-2406" y="615.094972067039" as="sourcePoint" />
              <mxPoint x="-2352.683014518794" y="615.0294873246582" as="targetPoint" />
              <Array as="points">
                <mxPoint x="-2277" y="539" />
              </Array>
              <mxPoint as="offset" />
            </mxGeometry>
          </mxCell>
        </object>
      </root>
    </mxGraphModel>
  </diagram>
  <diagram id="caWCjwx5tjW5jJMmaIyE" name="train-contr-neg">
    <mxGraphModel dx="4834" dy="3036" grid="1" gridSize="10" guides="1" tooltips="1" connect="1" arrows="1" fold="1" page="1" pageScale="1" pageWidth="850" pageHeight="1100" math="0" shadow="0">
      <root>
        <mxCell id="0" />
        <mxCell id="1" parent="0" />
        <object label="Expedite Delivery" concept="quality" id="tFb9OMGm2VpgbFZy9mrt-1">
          <mxCell style="ellipse;shape=cloud;whiteSpace=wrap;html=1;strokeWidth=3;fontSize=20;fillColor=#d5e8d4;strokeColor=#688F51;verticalAlign=middle;spacing=24;" vertex="1" parent="1">
            <mxGeometry x="-3260" y="-1560" width="155" height="91" as="geometry" />
          </mxCell>
        </object>
        <object label="&lt;font size=&quot;1&quot; color=&quot;#99004d&quot;&gt;&lt;b style=&quot;font-size: 18px&quot;&gt;-0.7&lt;/b&gt;&lt;/font&gt;" concept="contributionLink" id="tFb9OMGm2VpgbFZy9mrt-2">
          <mxCell style="endArrow=classic;html=1;fontSize=15;strokeColor=default;elbow=vertical;curved=1;strokeWidth=2;labelBackgroundColor=#FFFFFF;" edge="1" parent="1" source="tFb9OMGm2VpgbFZy9mrt-3" target="tFb9OMGm2VpgbFZy9mrt-1">
            <mxGeometry x="-0.0766" relative="1" as="geometry">
              <mxPoint x="-3189.102564102564" y="-1673" as="sourcePoint" />
              <mxPoint x="-3247.8860898060907" y="-1584.9422097687075" as="targetPoint" />
              <Array as="points">
                <mxPoint x="-3086" y="-1607" />
              </Array>
              <mxPoint as="offset" />
            </mxGeometry>
          </mxCell>
        </object>
        <object label="Order Supplies Online" concept="task" id="tFb9OMGm2VpgbFZy9mrt-3">
          <mxCell style="shape=hexagon;perimeter=hexagonPerimeter2;whiteSpace=wrap;html=1;fixedSize=1;strokeWidth=3;fontSize=20;size=20;fillColor=#d5e8d4;strokeColor=#688F51;verticalAlign=middle;spacing=10;" vertex="1" parent="1">
            <mxGeometry x="-3211" y="-1750" width="150" height="70" as="geometry" />
          </mxCell>
        </object>
      </root>
    </mxGraphModel>
  </diagram>
</mxfile>
